# expanded cube, each side separate vertices

v  1.0 -1.0 -1.0
v  1.0 -1.0  1.0
v -1.0 -1.0  1.0
v -1.0 -1.0 -1.0

v  1.0  1.0 -1.0
v -1.0  1.0 -1.0
v -1.0  1.0  1.0
v  1.0  1.0  1.0

v  1.0 -1.0 -1.0
v  1.0  1.0 -1.0
v  1.0  1.0  1.0
v  1.0 -1.0  1.0

v  1.0 -1.0  1.0
v  1.0  1.0  1.0
v -1.0  1.0  1.0
v -1.0 -1.0  1.0

v -1.0 -1.0  1.0
v -1.0  1.0  1.0
v -1.0  1.0 -1.0
v -1.0 -1.0 -1.0

v  1.0  1.0 -1.0
v  1.0 -1.0 -1.0
v -1.0 -1.0 -1.0
v -1.0  1.0 -1.0

vt 1.0 0.0
vt 1.0 1.0
vt 0.0 1.0
vt 0.0 0.0

vn  0.0 -1.0  0.0
vn  0.0  1.0  0.0
vn  1.0  0.0  0.0
vn  0.0  0.0  1.0
vn -1.0  0.0  0.0
vn  0.0  0.0 -1.0
f 1/1/1 2/2/1 3/3/1 4/4/1
f 5/1/2 6/4/2 7/3/2 8/2/2
f 9/4/3 10/1/3 11/2/3 12/3/3
f 13/1/4 14/2/4 15/3/4 16/4/4
f 17/3/5 18/2/5 19/1/5 20/4/5
f 21/2/6 22/1/6 23/4/6 24/3/6
